<svg xmlns="http://www.w3.org/2000/svg" viewBox="0 0 200 200" fill="none">
  <!-- Chain Link Circle -->
  <g stroke="#D4A853" stroke-width="6" stroke-linecap="round" fill="none">
    <!-- Top chain links -->
    <ellipse cx="100" cy="20" rx="12" ry="8" transform="rotate(0 100 100)"/>
    <ellipse cx="100" cy="20" rx="12" ry="8" transform="rotate(30 100 100)"/>
    <ellipse cx="100" cy="20" rx="12" ry="8" transform="rotate(60 100 100)"/>
    <ellipse cx="100" cy="20" rx="12" ry="8" transform="rotate(90 100 100)"/>
    <ellipse cx="100" cy="20" rx="12" ry="8" transform="rotate(120 100 100)"/>
    <ellipse cx="100" cy="20" rx="12" ry="8" transform="rotate(150 100 100)"/>
    <ellipse cx="100" cy="20" rx="12" ry="8" transform="rotate(180 100 100)"/>
    <ellipse cx="100" cy="20" rx="12" ry="8" transform="rotate(210 100 100)"/>
    <ellipse cx="100" cy="20" rx="12" ry="8" transform="rotate(240 100 100)"/>
    <ellipse cx="100" cy="20" rx="12" ry="8" transform="rotate(270 100 100)"/>
    <ellipse cx="100" cy="20" rx="12" ry="8" transform="rotate(300 100 100)"/>
    <ellipse cx="100" cy="20" rx="12" ry="8" transform="rotate(330 100 100)"/>
  </g>

  <!-- Crown -->
  <g fill="#D4A853" stroke="#D4A853" stroke-width="2">
    <!-- Crown base band -->
    <rect x="55" y="115" width="90" height="20" rx="3"/>

    <!-- Center prong (tallest) -->
    <path d="M100 50 L90 90 L100 80 L110 90 Z"/>

    <!-- Left prong -->
    <path d="M72 70 L62 100 L72 92 L82 100 Z"/>

    <!-- Right prong -->
    <path d="M128 70 L118 100 L128 92 L138 100 Z"/>

    <!-- Crown body connecting prongs to base -->
    <path d="M55 115 L62 100 L72 92 L82 100 L90 90 L100 80 L110 90 L118 100 L128 92 L138 100 L145 115 Z"/>
  </g>
</svg>
